# xmcd CD database file
# Copyright (C) 1993-1998 Ti Kan
# 
# Track frame offsets:
#     150
#     13820
#     30575
#     47875
#     62370
#     76360
#     91192
#     105492
#     119985
#     136650
#     156525
#     168132
# 
# Disc length: 2315 seconds
# 
# Revision: 1
# Processed by: cddbd v1.4b41PL1 Copyright (c) Steve Scherf et al.
# Submitted via: DiscPlay 4.0.4
# 
DISCID=9409090c
DTITLE=Cynthia Clawson - River of Memories
DYEAR=1900
DGENRE=
TTITLE0=Did You Ever Go Sailin'
TTITLE1=Hear the Words of My Beloved
TTITLE2=Come, Angel Band
TTITLE3=Thank God For the Promise of Spring
TTITLE4=It Won't Rain Always
TTITLE5=If We Never Meet Again
TTITLE6=Jesus Hold My Hand
TTITLE7=He Speaks to Me
TTITLE8=Rock of Ages
TTITLE9=Peace Medley
TTITLE10=Come, My Child
TTITLE11=Turn Your Eyes Upon Jesus
EXTD=
EXTT0=
EXTT1=
EXTT2=
EXTT3=
EXTT4=
EXTT5=
EXTT6=
EXTT7=
EXTT8=
EXTT9=
EXTT10=
EXTT11=
PLAYORDER=
